<?xml version="1.0" encoding="UTF-8" standalone="no"?><!DOCTYPE svg PUBLIC "-//W3C//DTD SVG 1.1//EN" "http://www.w3.org/Graphics/SVG/1.1/DTD/svg11.dtd"><svg width="100%" height="100%" viewBox="0 0 125 125" version="1.1" xmlns="http://www.w3.org/2000/svg" xmlns:xlink="http://www.w3.org/1999/xlink" xml:space="preserve" xmlns:serif="http://www.serif.com/" style="fill-rule:evenodd;clip-rule:evenodd;stroke-linecap:round;stroke-linejoin:round;stroke-miterlimit:1.5;"><g id="Ebene_1"><circle cx="62.5" cy="62.5" r="61.667" style="fill:#0c8a2d;"/><g><path d="M29.189,102.476c-0,-0 15.49,-43.54 26.979,-58.467c4.807,-6.245 13.781,-7.413 20.026,-2.606c6.246,4.807 7.414,13.78 2.607,20.026c-11.489,14.927 -49.612,41.047 -49.612,41.047Z" style="fill:none;stroke:#fff;stroke-width:4.17px;"/><path d="M47.715,88.38l-3.501,-2.72" style="fill:none;stroke:#fff;stroke-width:4.17px;"/><path d="M65.375,38.595l2.128,-14.87l9.946,4.158l3.021,-5.359l13.442,10.68l-4.116,3.89l6.015,9.096l-14.078,5.41" style="fill:none;stroke:#fff;stroke-width:4.17px;"/><path d="M89.796,37.094l-10.077,7.937" style="fill:none;stroke:#fff;stroke-width:4.17px;"/><path d="M77.449,27.883l-6.126,11.059" style="fill:none;stroke:#fff;stroke-width:4.17px;"/><path d="M43.58,68.036l6.57,5.103" style="fill:none;stroke:#fff;stroke-width:4.17px;"/><path d="M70.327,68.992l-6.337,-4.922" style="fill:none;stroke:#fff;stroke-width:4.17px;"/><path d="M56.168,44.009l9.893,7.685" style="fill:none;stroke:#fff;stroke-width:4.17px;"/></g><path d="M62.5,125c-8.333,0 -16.667,-1.667 -24.167,-5c-7.5,-3.333 -14.166,-7.5 -20,-13.333c-5.833,-5.834 -10.416,-12.5 -13.333,-20c-3.333,-7.5 -5,-15.834 -5,-24.167c0,-8.333 1.667,-16.667 5,-24.167c2.917,-7.5 7.5,-14.166 13.333,-20c5.834,-5.833 12.5,-10.416 20,-13.333c7.5,-3.333 15.834,-5 24.167,-5c8.333,0 16.667,1.667 24.167,5c7.5,3.333 14.166,7.5 20,13.333c5.833,5.834 10.416,12.5 13.333,20c3.333,7.5 5,15.834 5,24.167c0,8.333 -1.667,16.667 -5,24.167c-2.258,5.079 -4.9,9.779 -8.179,14.091c-1.563,2.059 -3.271,4.025 -5.154,5.909c-5.834,5.833 -12.5,10.416 -20,13.333c-7.5,3.333 -15.834,5 -24.167,5Zm0,-123.333c-8.333,-0 -16.25,1.666 -23.75,4.583c-7.083,3.333 -13.75,7.5 -19.167,13.333c-5.833,5.417 -10,12.084 -13.333,19.167c-2.917,7.5 -4.583,15.417 -4.583,23.75c-0,8.333 1.666,16.25 4.583,23.75c2.917,7.083 7.5,13.75 12.917,19.167c5.416,5.416 12.083,10 19.166,12.916c7.5,3.334 15.417,4.584 23.75,4.584c8.334,-0 16.25,-1.667 23.75,-4.584c7.084,-2.916 13.75,-7.5 19.167,-12.916c5.417,-5.417 10,-12.084 12.917,-19.167c3.333,-7.5 4.583,-15.417 4.583,-23.75c0,-8.333 -1.667,-16.25 -4.583,-23.75c-2.917,-7.083 -7.5,-13.75 -12.917,-19.167c-5.417,-5.416 -12.083,-10 -19.167,-12.916c-7.083,-3.334 -15,-5 -23.333,-5Z" style="fill:#fff;fill-rule:nonzero;"/></g></svg>
