<?xml version="1.0" encoding="UTF-8" standalone="no"?><!DOCTYPE svg PUBLIC "-//W3C//DTD SVG 1.1//EN" "http://www.w3.org/Graphics/SVG/1.1/DTD/svg11.dtd"><svg width="100%" height="100%" viewBox="0 0 125 125" version="1.1" xmlns="http://www.w3.org/2000/svg" xmlns:xlink="http://www.w3.org/1999/xlink" xml:space="preserve" xmlns:serif="http://www.serif.com/" style="fill-rule:evenodd;clip-rule:evenodd;stroke-linecap:round;stroke-linejoin:round;stroke-miterlimit:1.5;"><g id="Ebene_1"><circle cx="62.5" cy="62.5" r="61.667" style="fill:#0c8a2d;"/><path d="M62.5,125c-8.333,0 -16.667,-1.667 -24.167,-5c-7.5,-3.333 -14.166,-7.5 -20,-13.333c-5.833,-5.834 -10.416,-12.5 -13.333,-20c-3.333,-7.5 -5,-15.834 -5,-24.167c0,-8.333 1.667,-16.667 5,-24.167c2.917,-7.5 7.5,-14.166 13.333,-20c5.834,-5.833 12.5,-10.416 20,-13.333c7.5,-3.333 15.834,-5 24.167,-5c8.333,0 16.667,1.667 24.167,5c7.5,3.333 14.166,7.5 20,13.333c5.833,5.834 10.416,12.5 13.333,20c3.333,7.5 5,15.834 5,24.167c0,8.333 -1.667,16.667 -5,24.167c-3.333,7.5 -7.5,14.166 -13.333,20c-5.834,5.833 -12.5,10.416 -20,13.333c-7.5,3.333 -15.834,5 -24.167,5Zm0,-123.333c-8.333,-0 -16.25,1.666 -23.75,4.583c-7.083,3.333 -13.75,7.5 -19.167,13.333c-5.833,5.417 -10,12.084 -13.333,19.167c-2.917,7.5 -4.583,15.417 -4.583,23.75c-0,8.333 1.666,16.25 4.583,23.75c2.917,7.083 7.5,13.75 12.917,19.167c5.416,5.416 12.083,10 19.166,12.916c7.5,3.334 15.417,4.584 23.75,4.584c8.334,-0 16.25,-1.667 23.75,-4.584c7.084,-2.916 13.75,-7.5 19.167,-12.916c5.417,-5.417 10,-12.084 12.917,-19.167c3.333,-7.5 4.583,-15.417 4.583,-23.75c0,-8.333 -1.667,-16.25 -4.583,-23.75c-2.917,-7.083 -7.5,-13.75 -12.917,-19.167c-5.417,-5.416 -12.083,-10 -19.167,-12.916c-7.083,-3.334 -15,-5 -23.333,-5Z" style="fill:#fff;fill-rule:nonzero;"/></g><g><path d="M88.36,64.445l0,7.9" style="fill:none;stroke:#fff;stroke-width:4.17px;"/><path d="M93.712,64.445l-0,7.9" style="fill:none;stroke:#fff;stroke-width:4.17px;"/><path d="M92.883,50.168l0,8.289" style="fill:none;stroke:#fff;stroke-width:4.17px;"/><path d="M92.883,50.168l2.772,-2.771" style="fill:none;stroke:#fff;stroke-width:4.17px;"/><path d="M98.872,64.445l-0,7.9" style="fill:none;stroke:#fff;stroke-width:4.17px;"/><path d="M103.43,78.758l4.261,0l2.489,-20.457l-52.104,-0" style="fill:none;stroke:#fff;stroke-width:4.17px;"/><path d="M81.754,78.758l-16.811,0" style="fill:none;stroke:#fff;stroke-width:4.17px;"/><circle cx="42.128" cy="74.931" r="22.662" style="fill:none;stroke:#fff;stroke-width:4.17px;"/><path d="M26.74,58.301l-0,-30.893l31.336,-0l10.003,30.893" style="fill:none;stroke:#fff;stroke-width:4.17px;"/><path d="M34.884,47.16l0,-14.291l14.496,0l4.628,14.291" style="fill:none;stroke:#fff;stroke-width:4.17px;"/><path d="M34.884,47.16l19.124,-0" style="fill:none;stroke:#fff;stroke-width:4.17px;"/><circle cx="92.481" cy="85.115" r="12.478" style="fill:none;stroke:#fff;stroke-width:4.17px;"/><circle cx="42.128" cy="74.931" r="13.66" style="fill:none;stroke:#fff;stroke-width:4.17px;"/><circle cx="92.481" cy="85.115" r="5.37" style="fill:none;stroke:#fff;stroke-width:4.17px;"/></g></svg>
